<svg width="60" height="61" viewBox="0 0 60 61" fill="none" xmlns="http://www.w3.org/2000/svg">
<rect y="0.0102539" width="60" height="60" rx="30" fill="white" fill-opacity="0.6"/>
<path d="M30 0.510254C33.874 0.510254 37.7101 1.27329 41.2892 2.75581C44.8683 4.23832 48.1203 6.41128 50.8597 9.15061C53.599 11.8899 55.7719 15.142 57.2544 18.7211C58.737 22.3002 59.5 26.1363 59.5 30.0103C59.5 33.8843 58.737 37.7203 57.2544 41.2994C55.7719 44.8785 53.599 48.1306 50.8596 50.8699C48.1203 53.6092 44.8683 55.7822 41.2892 57.2647C37.71 58.7472 33.874 59.5103 30 59.5103C26.126 59.5103 22.2899 58.7472 18.7108 57.2647C15.1317 55.7822 11.8797 53.6092 9.14034 50.8699C6.40101 48.1306 4.22806 44.8785 2.74555 41.2994C1.26304 37.7203 0.499998 33.8842 0.5 30.0102C0.500002 26.1362 1.26304 22.3002 2.74556 18.7211C4.22808 15.142 6.40103 11.8899 9.14036 9.15059C11.8797 6.41126 15.1317 4.23831 18.7109 2.7558C22.29 1.27329 26.126 0.510251 30 0.510254L30 0.510254Z" stroke="#333335"/>
<path d="M24 24.0103L36 36.0103" stroke="#333335" stroke-width="1.2" stroke-linecap="square" stroke-linejoin="round"/>
<path d="M36 24.0103L24 36.0103" stroke="#333335" stroke-width="1.2" stroke-linecap="square" stroke-linejoin="round"/>
</svg>
