<svg width="16" height="16" viewBox="0 0 16 16" fill="none" xmlns="http://www.w3.org/2000/svg">
<path d="M5.64286 0.5H1.35714C0.842857 0.5 0.5 0.842857 0.5 1.35714V5.64286C0.5 6.15714 0.842857 6.5 1.35714 6.5H5.64286C6.15714 6.5 6.5 6.15714 6.5 5.64286V1.35714C6.5 0.842857 6.15714 0.5 5.64286 0.5Z" fill="#F7F3ED"/>
<path d="M14.6429 0.5H10.3571C9.84286 0.5 9.5 0.842857 9.5 1.35714V5.64286C9.5 6.15714 9.84286 6.5 10.3571 6.5H14.6429C15.1571 6.5 15.5 6.15714 15.5 5.64286V1.35714C15.5 0.842857 15.1571 0.5 14.6429 0.5Z" fill="#F7F3ED"/>
<path d="M5.64286 9.5H1.35714C0.842857 9.5 0.5 9.84286 0.5 10.3571V14.6429C0.5 15.1571 0.842857 15.5 1.35714 15.5H5.64286C6.15714 15.5 6.5 15.1571 6.5 14.6429V10.3571C6.5 9.84286 6.15714 9.5 5.64286 9.5Z" fill="#F7F3ED"/>
<path d="M14.6429 9.5H10.3571C9.84286 9.5 9.5 9.84286 9.5 10.3571V14.6429C9.5 15.1571 9.84286 15.5 10.3571 15.5H14.6429C15.1571 15.5 15.5 15.1571 15.5 14.6429V10.3571C15.5 9.84286 15.1571 9.5 14.6429 9.5Z" fill="#F7F3ED"/>
</svg>
