<svg width="427" height="112" viewBox="0 0 427 112" fill="none" xmlns="http://www.w3.org/2000/svg">
<path d="M426.112 58.1587C425.468 58.6047 424.872 59.1632 424.168 59.4806C412.724 64.6076 400.875 68.6296 388.975 72.5311C380.391 75.3477 371.758 77.9675 362.958 79.9885C354.366 81.9614 345.758 83.878 337.121 85.6258C330.313 87.004 323.477 88.3018 316.601 89.25C307.849 90.4554 299.024 90.6644 290.184 90.3188C281.076 89.9652 272.027 89.025 263.083 87.2893C253.035 85.3405 243.019 83.2311 233.326 79.8117C226.942 77.5617 222.75 72.9851 219.594 67.1871C218.53 65.2344 218.162 63.2495 218.35 61.1039C218.406 60.4851 218.274 60.023 217.626 59.802C217.438 59.7378 217.186 59.6132 217.122 59.4565C216.642 58.2511 215.602 58.4078 214.606 58.2993C211.254 57.9417 208.27 59.0748 205.354 60.4931C201.217 62.5062 197.117 64.5995 192.969 66.5844C190.005 67.9988 186.973 69.2645 183.993 70.6467C179.761 72.6115 175.441 74.4276 171.361 76.6777C167.372 78.8796 163.372 78.9479 159.112 78.0518C157.156 77.642 155.084 77.7746 153.144 77.3206C148.944 76.3402 144.772 75.2111 140.628 73.9977C138.86 73.4794 138.292 72.5271 138.496 70.6748C139.06 65.4875 139.944 60.457 143.104 55.997C146.024 51.8785 148.452 47.4145 151.132 43.1273C156.164 35.0672 161.52 27.228 167.368 19.7385C167.536 19.5215 167.684 19.2884 168.064 18.742C166.032 18.9429 164.256 19.0233 162.52 19.3246C161.64 19.4773 160.812 20.0077 159.992 20.4215C159.068 20.8876 158.148 21.3738 157.28 21.9323C155.104 23.3306 152.9 24.6967 150.804 26.2115C141.204 33.1466 131.603 40.0816 122.063 47.1011C112.803 53.9116 103.575 60.7704 94.4023 67.6974C86.0861 73.9816 77.8978 80.4385 69.5816 86.7267C60.6333 93.4931 51.4451 99.9179 42.0088 106.001C35.3206 110.308 28.1164 111.618 20.4082 110.967C16.1 110.606 11.7879 110.087 7.70779 108.545C6.36375 108.038 5.07972 107.307 3.88368 106.503C2.62765 105.66 2.01163 104.37 1.82362 102.819C1.54761 100.585 1.0236 98.383 0.779592 96.145C0.251577 91.255 1.0196 86.554 2.90365 81.9935C4.09569 79.1166 5.00771 76.1232 6.13175 73.2182C8.95583 65.9215 12.5879 59.0306 16.7241 52.4049C21.9402 44.0474 27.5444 35.9511 33.5405 28.1401C35.5006 25.5847 37.4767 23.0372 39.5567 20.5822C41.1168 18.742 42.7568 16.9419 44.5569 15.3428C45.4929 14.511 46.8009 13.9364 48.033 13.6391C51.1691 12.8918 54.2931 13.157 57.2812 14.4467C57.8732 14.7039 58.4533 15.0615 58.9413 15.4874C59.8773 16.299 59.7933 16.7089 59.0813 17.7134C58.6413 18.3322 58.4373 19.1317 58.1773 19.867C57.9372 20.5461 57.8812 21.3175 57.5372 21.9283C53.9331 28.2848 50.229 34.585 46.6609 40.9616C43.3088 46.9484 39.8487 52.8911 36.8606 59.0587C31.1085 70.9279 26.8043 83.3154 24.7403 96.4101C24.3923 98.608 25.4923 99.8897 27.6884 99.6487C29.8004 99.4156 31.7685 98.7446 33.5405 97.4709C39.3847 93.264 45.3009 89.1576 51.1251 84.9226C61.4094 77.4532 71.7176 70.0198 81.8819 62.3937C93.5423 53.6384 105.015 44.63 116.651 35.8386C123.559 30.6192 130.643 25.6409 137.6 20.4818C141.38 17.6772 145 14.6517 148.808 11.8792C150.5 10.6457 152.456 9.77379 154.312 8.77732C156.964 7.35495 159.664 6.02097 162.3 4.56243C169.072 0.821662 176.313 -0.435975 183.949 0.347537C187.817 0.74532 191.573 1.65741 195.253 2.91103C196.201 3.23247 197.173 3.48962 198.141 3.73472C200.917 4.43787 201.865 5.86025 201.405 8.68089C200.969 11.3368 199.869 13.7355 198.381 15.9294C190.353 27.7383 182.281 39.5151 174.233 51.312C173.137 52.9152 172.049 54.5224 171.025 56.1698C170.669 56.7403 170.396 57.4274 170.312 58.0863C170.145 59.4444 170.881 60.3726 172.217 60.3003C173.853 60.2079 175.593 60.1275 177.081 59.5248C181.209 57.8533 185.213 55.8724 189.293 54.0844C193.205 52.3727 197.301 51.2196 201.501 50.4722C210.686 48.8369 219.774 49.3753 228.73 51.9107C231.246 52.6219 233.758 53.4897 236.102 54.6349C238.227 55.6715 239.579 57.7006 240.903 59.6333C241.051 59.8503 241.131 60.1596 241.135 60.4248C241.159 62.3093 241.959 63.8964 242.939 65.4393C243.623 66.5202 244.303 67.6251 244.815 68.7943C246.287 72.1574 248.539 74.9459 251.007 77.5898C253.835 80.6194 257.447 82.1864 261.359 83.1949C267.591 84.8021 273.96 84.9226 280.332 84.77C289.308 84.553 298.148 83.223 307 81.7484C320.589 79.4823 334.145 77.0956 347.462 73.5436C353.938 71.8159 360.342 69.7989 366.762 67.8662C376.13 65.0496 385.487 62.1928 394.851 59.3601C398.623 58.2189 402.387 57.0497 406.179 55.9689C410.935 54.6108 415.772 54.2291 420.624 55.2979C422.58 55.7278 424.66 56.0773 426.12 57.7247V58.1426L426.112 58.1587Z" fill="#333335"/>
</svg>
