<svg width="609" height="159" viewBox="0 0 609 159" fill="none" xmlns="http://www.w3.org/2000/svg">
<path d="M608.989 83.1293C608.067 83.7682 607.214 84.5682 606.206 85.0229C589.826 92.3669 572.869 98.1282 555.836 103.717C543.55 107.751 531.195 111.504 518.6 114.399C506.302 117.225 493.982 119.97 481.621 122.474C471.877 124.448 462.093 126.307 452.251 127.666C439.724 129.392 427.095 129.692 414.442 129.197C401.406 128.69 388.456 127.343 375.654 124.857C361.273 122.065 346.937 119.044 333.065 114.146C323.927 110.923 317.928 104.367 313.41 96.062C311.887 93.2648 311.361 90.4216 311.63 87.3481C311.71 86.4618 311.521 85.7999 310.594 85.4833C310.325 85.3912 309.964 85.2128 309.872 84.9884C309.185 83.2617 307.697 83.4862 306.271 83.3308C301.473 82.8185 297.202 84.4416 293.029 86.4733C287.109 89.3568 281.241 92.3554 275.304 95.1987C271.061 97.2246 266.722 99.0376 262.457 101.018C256.399 103.832 250.216 106.433 244.376 109.657C238.669 112.811 232.943 112.908 226.846 111.625C224.046 111.038 221.081 111.228 218.304 110.577C212.293 109.173 206.321 107.556 200.39 105.818C197.86 105.075 197.047 103.711 197.339 101.058C198.146 93.6274 199.411 86.4215 203.934 80.0328C208.113 74.1334 211.589 67.739 215.424 61.5979C222.627 50.0523 230.293 38.8233 238.663 28.095C238.903 27.7842 239.115 27.4503 239.659 26.6676C236.751 26.9554 234.209 27.0705 231.724 27.5021C230.464 27.7208 229.279 28.4806 228.106 29.0734C226.783 29.741 225.466 30.4375 224.224 31.2375C221.109 33.2404 217.955 35.1973 214.955 37.3671C201.215 47.3012 187.474 57.2352 173.82 67.2901C160.566 77.0457 147.358 86.8704 134.23 96.7929C122.328 105.795 110.608 115.044 98.7057 124.051C85.8986 133.743 72.7479 142.947 59.2423 151.66C49.6698 157.83 39.3588 159.707 28.3265 158.774C22.1605 158.256 15.9888 157.514 10.1491 155.304C8.22545 154.578 6.38768 153.531 4.67586 152.38C2.87816 151.171 1.99649 149.324 1.7274 147.102C1.33237 143.902 0.582374 140.748 0.23314 137.542C-0.52258 130.538 0.576649 123.804 3.2732 117.271C4.97929 113.15 6.28462 108.862 7.89339 104.701C11.9353 94.249 17.1338 84.3783 23.0536 74.8874C30.5192 62.9159 38.5401 51.3185 47.1221 40.1298C49.9275 36.4692 52.7557 32.8202 55.7328 29.3036C57.9656 26.6676 60.3129 24.0891 62.8892 21.7984C64.2289 20.607 66.101 19.784 67.8644 19.3581C72.3529 18.2875 76.8242 18.6674 81.1009 20.5149C81.9482 20.8833 82.7784 21.3955 83.4768 22.0056C84.8165 23.1682 84.6963 23.7553 83.6772 25.1942C83.0474 26.0805 82.7555 27.2259 82.3833 28.2791C82.0398 29.2518 81.9597 30.3569 81.4673 31.2317C76.3089 40.337 71.0075 49.3616 65.9006 58.4957C61.103 67.0714 56.1507 75.5838 51.874 84.4186C43.6412 101.42 37.481 119.165 34.5268 137.922C34.0287 141.07 35.6031 142.906 38.7462 142.561C41.7691 142.227 44.5859 141.266 47.1221 139.441C55.4866 133.415 63.9541 127.533 72.2899 121.467C87.0093 110.767 101.763 100.12 116.311 89.1956C132.999 76.6543 149.419 63.7505 166.074 51.1574C175.961 43.6809 186.1 36.5498 196.056 29.1597C201.466 25.1424 206.648 20.8085 212.098 16.8371C214.52 15.0702 217.319 13.8212 219.976 12.3939C223.772 10.3564 227.636 8.44558 231.409 6.35632C241.102 0.997922 251.464 -0.803559 262.394 0.318769C267.93 0.888566 273.306 2.19507 278.573 3.9908C279.93 4.45124 281.321 4.81959 282.706 5.17068C286.68 6.1779 288.036 8.21535 287.378 12.2557C286.754 16.0601 285.18 19.4962 283.05 22.6387C271.56 39.5542 260.006 56.4237 248.487 73.3219C246.918 75.6184 245.361 77.9206 243.896 80.2803C243.386 81.0976 242.997 82.0818 242.876 83.0257C242.636 84.9711 243.689 86.3006 245.602 86.197C247.943 86.0646 250.434 85.9495 252.563 85.0862C258.472 82.6919 264.203 79.8544 270.042 77.2932C275.642 74.8414 281.504 73.1895 287.515 72.119C300.66 69.7765 313.668 70.5477 326.487 74.1795C330.088 75.1982 333.683 76.4414 337.038 78.0817C340.078 79.5666 342.013 82.4732 343.908 85.2416C344.12 85.5524 344.235 85.9956 344.24 86.3754C344.275 89.0748 345.42 91.3482 346.822 93.5583C347.801 95.1066 348.775 96.6893 349.507 98.3642C351.614 103.182 354.838 107.176 358.37 110.963C362.418 115.303 367.587 117.547 373.187 118.992C382.106 121.294 391.221 121.467 400.341 121.248C413.188 120.937 425.841 119.032 438.511 116.92C457.959 113.674 477.362 110.255 496.421 105.167C505.69 102.692 514.856 99.8031 524.044 97.0347C537.453 93 550.844 88.9079 564.246 84.8502C569.645 83.2156 575.033 81.5408 580.46 79.9926C587.267 78.0472 594.189 77.5004 601.134 79.0314C603.933 79.6472 606.91 80.148 609 82.5077V83.1063L608.989 83.1293Z" fill="#D5C8B0"/>
</svg>
