<svg width="598" height="598" viewBox="0 0 598 598" fill="none" xmlns="http://www.w3.org/2000/svg">
<circle cx="299" cy="299" r="298.5" stroke="white" stroke-opacity="0.3"/>
<path d="M299 0.5C338.2 0.5 377.015 8.22093 413.231 23.222C449.447 38.223 482.353 60.2104 510.071 87.9286C537.79 115.647 559.777 148.553 574.778 184.769C589.779 220.985 597.5 259.8 597.5 299C597.5 338.2 589.779 377.015 574.778 413.231C559.777 449.447 537.79 482.353 510.071 510.071C482.353 537.79 449.447 559.777 413.231 574.778C377.015 589.779 338.199 597.5 299 597.5C259.8 597.5 220.985 589.779 184.769 574.778C148.553 559.777 115.647 537.79 87.9285 510.071C60.2103 482.353 38.2229 449.447 23.2219 413.231C8.22089 377.015 0.49998 338.199 0.5 299C0.50002 259.8 8.22097 220.985 23.222 184.769C38.2231 148.553 60.2104 115.647 87.9287 87.9285C115.647 60.2102 148.553 38.2229 184.769 23.2219C220.985 8.22088 259.801 0.499974 299 0.5L299 0.5Z" stroke="#F7F3ED"/>
</svg>
