<svg width="18" height="18" viewBox="0 0 18 18" fill="none" xmlns="http://www.w3.org/2000/svg">
<g opacity="0.3">
<path d="M1.75994 1.53687L1.71094 6.87187L6.79794 5.16987" stroke="#333335" stroke-width="1.5" stroke-linecap="round" stroke-linejoin="round"/>
<path d="M16.0857 11.198C16.6598 9.29333 16.4539 7.23859 15.5131 5.48578C14.5724 3.73297 12.9738 2.42568 11.0692 1.85148C9.1645 1.27729 7.10976 1.48323 5.35696 2.42401C3.60415 3.36479 2.29685 4.96333 1.72266 6.86798" stroke="#333335" stroke-width="1.5" stroke-linecap="round" stroke-linejoin="round"/>
<path d="M6.27466 15.987C5.48196 15.6875 4.74584 15.2557 4.09766 14.71" stroke="#333335" stroke-width="1.5" stroke-linecap="round" stroke-linejoin="round"/>
<path d="M11.203 16.115C10.4654 16.3495 9.69598 16.4686 8.922 16.468H8.75" stroke="#333335" stroke-width="1.5" stroke-linecap="round" stroke-linejoin="round"/>
<path d="M15.0921 13.2361C14.6298 13.9024 14.0632 14.4899 13.4141 14.9761" stroke="#333335" stroke-width="1.5" stroke-linecap="round" stroke-linejoin="round"/>
<path d="M2.49775 12.8369C2.07361 12.1354 1.76817 11.3688 1.59375 10.5679" stroke="#333335" stroke-width="1.5" stroke-linecap="round" stroke-linejoin="round"/>
</g>
</svg>
