<svg width="17" height="18" viewBox="0 0 17 18" fill="none" xmlns="http://www.w3.org/2000/svg">
<path d="M1.16619 1.53687L1.11719 6.87187L6.20419 5.16987" stroke="#1C1C1C" stroke-width="1.5" stroke-linecap="round" stroke-linejoin="round"/>
<path d="M15.4958 11.1979C16.07 9.29321 15.8641 7.23847 14.9233 5.48566C13.9825 3.73285 12.384 2.42555 10.4793 1.85136C8.57466 1.27717 6.51992 1.48311 4.76711 2.42389C3.0143 3.36466 1.70701 4.96321 1.13281 6.86786" stroke="#1C1C1C" stroke-width="1.5" stroke-linecap="round" stroke-linejoin="round"/>
<path d="M5.68481 15.9868C4.89212 15.6874 4.156 15.2556 3.50781 14.7098" stroke="#1C1C1C" stroke-width="1.5" stroke-linecap="round" stroke-linejoin="round"/>
<path d="M10.6093 16.1149C9.87166 16.3494 9.10223 16.4685 8.32825 16.4679H8.15625" stroke="#1C1C1C" stroke-width="1.5" stroke-linecap="round" stroke-linejoin="round"/>
<path d="M14.4983 13.2358C14.036 13.9022 13.4694 14.4897 12.8203 14.9758" stroke="#1C1C1C" stroke-width="1.5" stroke-linecap="round" stroke-linejoin="round"/>
<path d="M1.904 12.8369C1.47986 12.1354 1.17442 11.3688 1 10.5679" stroke="#1C1C1C" stroke-width="1.5" stroke-linecap="round" stroke-linejoin="round"/>
</svg>
